<svg version="1.1" id="Layer_1" xmlns="http://www.w3.org/2000/svg" xmlns:xlink="http://www.w3.org/1999/xlink" x="0px" y="0px"
	 width="100%" viewBox="0 0 1024 1024" enable-background="new 0 0 1024 1024" xml:space="preserve">
<path fill="#000000" opacity="1.000000" stroke="none" 
	d="
M376.183533,827.128235 
	C374.141388,829.400513 372.981293,832.383240 369.198364,831.075806 
	C365.434204,829.774841 364.043427,827.639832 364.784943,823.564575 
	C367.431763,809.018372 369.850677,794.430481 372.311401,779.850830 
	C372.883698,776.459900 373.280640,773.039307 372.849609,769.197388 
	C368.004395,775.453735 363.140106,781.695374 358.318787,787.970032 
	C352.025970,796.159790 345.777802,804.383911 339.488251,812.576172 
	C337.121613,815.658752 332.674988,815.782898 330.215332,812.915100 
	C328.869537,811.346008 329.869690,810.116638 330.778870,808.932983 
	C344.377441,791.229004 358.048065,773.579834 371.558594,755.808960 
	C374.225494,752.301025 376.703735,754.177795 379.440826,755.242859 
	C382.632874,756.485046 384.902588,758.023071 384.199921,762.173767 
	C381.534760,777.916626 379.076477,793.694580 376.552673,809.461243 
	C376.452057,810.089783 376.471649,810.737549 376.394104,812.098633 
	C380.392059,808.919739 382.928436,805.262329 385.768250,801.931702 
	C393.766418,792.551147 401.849426,783.230286 409.487000,773.560486 
	C412.905029,769.232910 415.583374,772.475647 418.622681,773.373657 
	C421.586639,774.249329 423.004272,775.916992 422.300629,779.279114 
	C417.734741,801.095154 413.278595,822.934265 408.756927,844.759644 
	C408.560364,845.708496 408.074249,846.597412 407.743103,847.461853 
	C400.363037,846.630859 399.210907,845.178711 400.592407,838.427979 
	C403.791901,822.793640 407.032623,807.167725 410.262146,791.539551 
	C410.529480,790.246094 411.005951,788.969238 410.041443,786.581909 
	C398.593964,800.276367 387.490875,813.558838 376.183533,827.128235 
z"/>
<path fill="#000000" opacity="1.000000" stroke="none" 
	d="
M307.026642,304.943787 
	C300.144012,295.927094 293.453888,287.211700 286.836334,278.441559 
	C285.248260,276.336884 282.505402,274.459747 286.078064,271.415558 
	C289.512604,268.489105 291.600403,269.672943 293.648987,272.794769 
	C293.798126,273.022034 294.205292,273.079926 294.494965,273.217773 
	C299.203644,256.462067 305.872101,251.657806 319.823883,255.013199 
	C321.386841,254.023865 320.755463,252.337433 320.975830,250.959061 
	C322.284912,242.770081 327.217194,237.450806 334.566345,234.371658 
	C340.894073,231.720459 346.732330,233.749512 350.817139,238.659332 
	C359.626923,249.248596 367.877655,260.303009 376.255646,271.037018 
	C370.897736,278.074860 369.939514,278.084717 365.145996,271.770477 
	C359.408447,264.212616 353.711792,256.622070 347.865997,249.148499 
	C342.522705,242.317352 338.817627,241.170151 333.679993,244.403030 
	C327.451172,248.322556 325.330750,255.021317 328.491852,261.763885 
	C332.062561,269.380127 338.067078,275.336151 342.858093,282.123871 
	C344.489227,284.434814 346.085541,286.796417 347.955780,288.906097 
	C350.397552,291.660400 348.846985,293.211121 346.702850,294.981079 
	C344.332153,296.938110 342.602203,297.099792 340.576965,294.356110 
	C334.448364,286.053284 328.106659,277.907898 321.856262,269.694855 
	C316.753265,262.989532 312.866821,261.503723 307.711517,264.310608 
	C301.532227,267.675018 299.241913,274.527985 301.991028,281.554901 
	C303.967255,286.606232 307.626373,290.564880 310.791962,294.830261 
	C314.362640,299.641418 317.993439,304.413971 321.768738,309.064789 
	C323.816132,311.586945 322.951294,313.199768 320.715942,314.799316 
	C318.613586,316.303741 316.719055,317.942535 314.523682,314.745941 
	C312.265167,311.457275 309.685120,308.389465 307.026642,304.943787 
z"/>
<path fill="#000000" opacity="1.000000" stroke="none" 
	d="
M250.454620,655.493286 
	C236.156189,661.536133 222.164841,667.325378 208.299545,673.402283 
	C204.621826,675.014221 202.974808,674.215088 201.594040,670.581482 
	C199.172897,664.210266 196.208801,658.047546 193.689468,651.711060 
	C186.064789,632.533936 192.284302,616.711304 210.976913,607.881531 
	C222.672119,602.357239 234.561584,599.590942 246.767181,606.566589 
	C253.438705,610.379395 257.533508,616.419312 260.667633,623.124451 
	C263.695160,629.601501 266.172668,636.334656 269.156525,642.833679 
	C270.682251,646.156860 269.496857,647.726379 266.510803,648.910339 
	C261.252686,650.995117 256.040405,653.195435 250.454620,655.493286 
M205.964951,659.515686 
	C206.809769,661.842102 207.983856,663.196350 210.806442,661.987061 
	C225.942596,655.502441 241.115677,649.103882 256.285187,642.697388 
	C258.345154,641.827454 259.046814,640.542419 258.150482,638.372314 
	C255.738419,632.532654 253.602081,626.564026 249.994217,621.300110 
	C245.587784,614.871094 239.514496,611.553406 231.698578,612.332642 
	C222.224411,613.276978 213.600906,616.678833 206.211197,622.757324 
	C201.306091,626.792053 199.023270,632.054321 199.203171,638.556946 
	C199.409119,646.001221 203.065720,652.227600 205.964951,659.515686 
z"/>
<path fill="#000000" opacity="1.000000" stroke="none" 
	d="
M730.428711,693.461060 
	C727.128357,690.770508 727.897095,688.830261 730.483826,686.366516 
	C733.100403,683.874451 734.613403,684.864319 736.633850,686.920471 
	C747.020081,697.490356 757.521118,707.947388 767.899109,718.525330 
	C769.689087,720.349792 772.866150,721.853821 769.773743,725.419495 
	C766.703552,728.959534 764.250793,728.181213 761.145874,724.207397 
	C761.207520,731.375366 759.575256,737.063354 754.959167,741.563965 
	C750.147461,746.255127 744.518738,747.835449 738.279297,745.790710 
	C736.899048,747.476929 737.292053,749.041931 737.362183,750.475220 
	C737.784485,759.108704 732.887390,764.512634 726.116333,768.496460 
	C719.683044,772.281677 713.617615,770.132568 708.738770,765.533569 
	C699.656616,756.972107 691.054871,747.902893 682.163330,739.136169 
	C679.628906,736.637207 681.255188,735.174255 682.988770,733.392822 
	C684.837524,731.493103 686.417664,730.441223 688.768311,732.860291 
	C696.194214,740.502258 703.721191,748.046814 711.262146,755.575867 
	C717.025330,761.329956 721.084656,762.178162 725.605957,758.738647 
	C731.409302,754.323853 732.835205,747.313416 729.128540,740.971924 
	C726.581970,736.615112 722.923523,733.157227 719.475586,729.555786 
	C715.216064,725.106445 710.909973,720.690308 706.419739,716.477478 
	C703.852844,714.069153 703.990723,712.340759 706.455750,709.934265 
	C708.974731,707.474976 710.698853,707.709167 713.053162,710.144226 
	C720.459412,717.804443 728.023132,725.313538 735.577515,732.829224 
	C740.702148,737.927551 744.061890,738.765320 748.259399,736.189087 
	C753.496582,732.974548 755.997437,726.854309 754.328003,721.110107 
	C753.279480,717.502197 751.085693,714.575928 748.496216,711.926147 
	C742.561829,705.853455 736.621460,699.786560 730.428711,693.461060 
z"/>
<path fill="#000000" opacity="1.000000" stroke="none" 
	d="
M749.673584,628.256348 
	C767.656982,639.097107 785.359009,649.692932 802.951599,660.467468 
	C805.360840,661.942932 809.786743,662.530396 807.001343,667.646362 
	C804.437439,672.355774 801.690247,670.904541 798.046204,668.623413 
	C799.937012,674.864258 799.636841,680.554810 796.808411,686.147888 
	C791.583374,696.480469 781.738892,701.075500 770.603394,697.942688 
	C763.272034,695.880188 756.793274,692.196411 751.305420,686.895935 
	C738.268005,674.303833 742.033997,654.811218 758.815674,647.820190 
	C759.408569,647.573120 759.978149,647.270020 761.658081,646.468445 
	C756.477173,643.235962 751.951233,640.392822 747.402954,637.585876 
	C745.987976,636.712646 744.532837,635.898804 743.060730,635.125122 
	C739.997742,633.515320 737.828613,632.034790 740.309753,627.872131 
	C742.774597,623.736755 744.998230,625.551453 747.608276,627.104797 
	C748.179932,627.444946 748.773865,627.747803 749.673584,628.256348 
M753.682068,663.322693 
	C751.122131,668.801392 752.284668,673.740723 756.075317,678.132568 
	C760.551086,683.318237 766.296204,686.724609 772.823242,688.489075 
	C780.417847,690.542297 786.531128,687.755371 790.197815,681.192078 
	C793.648926,675.014648 792.449585,667.871643 786.974915,662.515015 
	C783.481384,659.096680 779.415588,656.526611 774.815308,654.853577 
	C765.171143,651.346191 759.124207,653.623230 753.682068,663.322693 
z"/>
<path fill="#000000" opacity="1.000000" stroke="none" 
	d="
M751.547607,283.615112 
	C756.525696,290.938049 756.627747,298.294373 752.907532,305.668762 
	C748.835388,313.740723 742.910522,320.216400 734.778564,324.361023 
	C720.334290,331.722748 704.180481,323.681000 701.147095,307.731995 
	C700.936707,306.625488 700.736511,305.517029 700.337402,303.360321 
	C694.551514,309.181854 689.198242,314.306213 684.173950,319.735138 
	C681.702942,322.405151 680.043335,322.706696 677.301941,320.012970 
	C674.493103,317.252960 675.116943,315.614532 677.597473,313.122192 
	C693.219177,297.425873 708.714722,281.603699 724.203308,265.775543 
	C726.393372,263.537476 727.980042,261.267853 731.467834,264.471252 
	C734.925415,267.646851 733.718872,269.705872 730.953308,272.066406 
	C730.724854,272.261383 730.642944,272.627930 730.174377,273.524048 
	C739.071167,273.127228 746.246338,276.130066 751.547607,283.615112 
M708.856506,297.681580 
	C706.939697,305.900940 709.057861,311.717346 715.466492,315.832153 
	C720.880920,319.308624 727.202148,318.665253 733.530273,314.021790 
	C737.607849,311.029694 740.931824,307.330109 743.448364,302.980286 
	C747.413208,296.127045 746.521484,289.636200 741.112671,284.398926 
	C735.904907,279.356384 728.767395,278.464722 722.344299,282.422028 
	C716.596680,285.963226 711.912903,290.616119 708.856506,297.681580 
z"/>
<path fill="#000000" opacity="1.000000" stroke="none" 
	d="
M641.187012,271.212433 
	C650.452332,256.735046 659.493530,242.543350 668.593323,228.389328 
	C670.223206,225.854156 671.257568,222.619400 675.776550,225.165985 
	C680.327332,227.730453 678.709045,230.241577 676.576355,233.350754 
	C679.566162,234.550400 682.178406,232.785095 684.889160,233.076279 
	C700.936035,234.800018 710.106018,249.340210 704.325500,264.372131 
	C701.356567,272.092560 697.047852,279.069397 690.248718,284.023315 
	C677.378906,293.400452 660.146606,288.000763 654.657166,273.044891 
	C654.330322,272.154480 653.954346,271.282043 653.269531,269.573975 
	C648.886230,276.317444 644.791504,282.340027 641.009155,288.552765 
	C639.115967,291.662445 637.466125,292.857635 633.934875,290.549316 
	C630.502991,288.306030 631.158142,286.382477 633.082214,283.657959 
	C635.866455,279.715363 638.363403,275.569885 641.187012,271.212433 
M669.486755,278.205658 
	C675.907776,281.345917 681.489075,279.711121 686.286804,274.940247 
	C690.695435,270.556305 693.883606,265.375336 695.832031,259.390625 
	C697.844666,253.208740 696.105469,248.308197 691.314758,244.284958 
	C686.306580,240.079117 680.748657,238.761444 674.678711,241.749741 
	C668.166199,244.955948 664.640259,250.805511 661.939575,257.151825 
	C658.083496,266.213593 660.301636,272.571960 669.486755,278.205658 
z"/>
<path fill="#000000" opacity="1.000000" stroke="none" 
	d="
M263.223511,757.319092 
	C259.476501,760.682434 258.138641,757.381409 256.298676,755.393982 
	C254.117935,753.038513 255.641205,751.582520 257.405792,750.071228 
	C263.541901,744.816406 269.656128,739.536011 276.586975,733.569580 
	C266.578064,733.414062 259.994690,729.379272 255.514038,721.736938 
	C251.956100,715.668457 251.431381,709.355591 254.396133,703.101990 
	C259.249390,692.865051 267.146729,685.507446 277.889771,681.968506 
	C292.477295,677.163086 306.111420,686.649902 307.512390,702.026428 
	C307.631439,703.333008 307.718872,704.642456 307.820862,705.949219 
	C310.095886,706.385803 310.758026,703.634705 312.903595,703.833679 
	C314.318176,704.210938 315.004333,705.672485 316.094086,706.662842 
	C318.567719,708.910767 318.073364,710.561523 315.570221,712.662537 
	C300.262390,725.510864 285.080933,738.509766 269.868958,751.472168 
	C267.714325,753.308228 265.622681,755.218262 263.223511,757.319092 
M274.466583,727.005676 
	C282.470917,728.409424 293.838287,721.703064 298.765350,712.670288 
	C302.101807,706.553589 301.195374,700.023193 296.279541,694.760620 
	C291.689789,689.847168 285.743195,688.619263 279.439453,691.401917 
	C274.484406,693.589233 270.367523,696.949890 266.850555,701.017090 
	C258.493561,710.681702 261.637848,722.404846 274.466583,727.005676 
z"/>
<path fill="#000000" opacity="1.000000" stroke="none" 
	d="
M287.936768,301.921417 
	C294.093994,306.073120 299.460052,310.534790 302.742218,316.960785 
	C309.510773,330.212341 302.675140,345.335236 288.169495,349.401215 
	C287.088989,349.704102 286.068573,350.221527 283.996002,351.047241 
	C290.409210,356.082428 296.194427,360.686554 302.053406,365.194855 
	C304.482025,367.063568 305.641022,368.678497 303.264557,371.691071 
	C301.011108,374.547760 299.400513,374.983459 296.430176,372.605194 
	C279.275513,358.869995 261.957977,345.338379 244.772049,331.641815 
	C242.452194,329.792969 238.619720,328.557831 242.020264,323.924957 
	C245.300064,319.456543 247.522003,322.384949 250.819901,324.540070 
	C250.698959,319.177063 250.312851,314.274567 252.739502,309.741821 
	C259.956635,296.260986 272.670654,293.287506 287.936768,301.921417 
M274.794464,306.571869 
	C267.543640,305.368774 262.649353,308.754303 259.190765,314.728729 
	C255.767960,320.641296 256.853943,326.257507 260.833832,331.415771 
	C264.766907,336.513245 269.757660,340.356201 275.864685,342.499969 
	C282.891327,344.966614 289.246094,342.647461 293.592102,336.292450 
	C297.654999,330.351410 297.394806,324.288818 292.537323,318.500153 
	C287.976501,313.065094 282.468750,308.877716 274.794464,306.571869 
z"/>
<path fill="#000000" opacity="1.000000" stroke="none" 
	d="
M765.463989,388.156372 
	C762.099670,386.604340 758.826111,385.422546 756.125061,383.053497 
	C746.276733,374.415649 744.850464,361.915375 753.214844,351.866394 
	C760.306763,343.346069 769.701782,338.111969 780.787598,337.339325 
	C796.598450,336.237457 808.104858,353.146729 802.666687,368.542206 
	C810.084961,364.394867 816.894104,360.811737 823.458557,356.825500 
	C826.833496,354.776062 828.644287,355.228943 830.525391,358.710266 
	C832.127686,361.675629 831.454346,363.122864 828.728088,364.633209 
	C808.770874,375.689362 788.853699,386.817902 768.950989,397.971985 
	C766.558289,399.312958 764.685242,399.625519 763.219543,396.744720 
	C761.982910,394.314362 760.211548,392.002045 764.023438,390.188873 
	C764.684570,389.874390 765.081360,389.004028 765.463989,388.156372 
M771.662476,382.631805 
	C780.062134,382.075592 786.988708,378.268951 792.760986,372.455139 
	C797.686035,367.494537 798.073792,360.407593 794.352905,353.979584 
	C790.904236,348.021912 785.173279,345.637024 778.199585,347.287323 
	C773.420776,348.418243 769.244080,350.804443 765.251953,353.567932 
	C759.649963,357.445862 755.911926,362.455597 757.478638,369.564636 
	C759.031799,376.612152 763.285217,381.450592 771.662476,382.631805 
z"/>
<path fill="#000000" opacity="1.000000" stroke="none" 
	d="
M640.340881,241.152634 
	C640.295471,248.288376 640.340881,254.944260 640.148193,261.593231 
	C640.093628,263.478058 640.953857,266.842346 637.563232,266.286530 
	C634.681946,265.814148 630.431946,265.907867 630.583069,260.912109 
	C630.713806,256.589813 630.573120,252.252457 630.875000,247.944351 
	C631.122375,244.414413 629.901245,242.450546 626.453125,241.292847 
	C619.839294,239.072281 613.320557,236.552979 606.831848,233.982422 
	C604.229431,232.951477 602.451416,233.463455 600.789612,235.650604 
	C598.578125,238.561142 596.148865,241.305267 593.845276,244.146957 
	C589.703613,249.256195 587.633789,249.376602 582.116455,244.757034 
	C582.055298,243.081985 583.300415,242.084503 584.226929,240.969345 
	C598.573914,223.700836 613.059814,206.545944 627.236633,189.139175 
	C631.064148,184.439697 634.348999,188.054276 637.910400,188.772659 
	C641.315552,189.459503 641.526001,191.820358 641.464417,194.799957 
	C641.148132,210.091644 641.573730,225.399979 640.340881,241.152634 
M621.639526,210.106537 
	C617.650513,215.306625 612.980835,220.005615 609.307068,226.125626 
	C616.713501,228.865570 623.575928,231.404251 630.933594,234.126160 
	C632.484497,221.644424 631.107910,209.978333 631.552856,198.103973 
	C628.401855,201.923065 625.250916,205.742142 621.639526,210.106537 
z"/>
<path fill="#000000" opacity="1.000000" stroke="none" 
	d="
M218.827728,453.651978 
	C217.668411,460.268005 216.632324,466.470917 215.611328,472.583435 
	C222.589600,475.125977 229.532990,473.108551 233.186340,467.768036 
	C237.289703,461.769775 237.210373,452.706421 232.958969,447.690338 
	C231.702301,446.207611 229.829193,445.125397 231.192825,442.623108 
	C233.210861,438.919922 235.461395,438.513336 238.600342,441.651428 
	C246.104202,449.153198 245.662781,458.107056 242.774643,467.218933 
	C239.912109,476.250092 233.605881,481.902283 224.142593,483.146057 
	C216.457352,484.156189 208.964417,482.935211 201.722794,479.794495 
	C185.100723,472.585449 183.948593,454.335419 191.510773,442.334259 
	C196.809097,433.925842 211.644165,430.757874 219.882401,435.662262 
	C222.073334,436.966522 221.467850,438.842957 221.234207,440.496307 
	C220.630814,444.766113 219.731857,448.994110 218.827728,453.651978 
M210.617172,443.357788 
	C200.741501,442.963928 196.070343,446.611328 195.261444,455.348114 
	C194.436264,464.260742 198.629593,469.761383 207.747513,471.021759 
	C209.216751,462.440674 210.708679,453.835205 212.118225,445.216309 
	C212.199661,444.718323 211.611588,444.110870 210.617172,443.357788 
z"/>
<path fill="#000000" opacity="1.000000" stroke="none" 
	d="
M198.759918,549.485840 
	C212.795822,544.057068 212.893509,544.087646 215.698700,557.908264 
	C217.119064,564.906067 218.488174,571.915955 219.743866,578.944702 
	C220.375854,582.482422 222.009720,583.341003 225.305786,581.898682 
	C230.848648,579.473145 235.181625,575.902466 235.543396,569.537476 
	C235.926926,562.789795 234.485977,556.328125 227.781494,552.944824 
	C224.334747,551.205566 224.049942,549.324829 225.487030,546.229248 
	C227.235947,542.461853 229.678604,544.538086 231.702759,545.510254 
	C246.890091,552.804932 248.760788,578.089478 234.617416,587.594055 
	C225.401657,593.787170 215.063751,595.890015 204.095627,593.079895 
	C194.562683,590.637451 188.263046,582.384033 186.840103,570.849243 
	C185.678345,561.431702 189.486130,554.453674 198.759918,549.485840 
M198.607742,560.141663 
	C194.322159,565.070435 193.760757,572.289185 197.213989,578.062073 
	C200.291794,583.207397 206.025269,585.464600 212.620392,583.754761 
	C210.939774,574.802490 209.252136,565.812805 207.573578,556.871643 
	C203.908020,556.675964 201.508438,558.071411 198.607742,560.141663 
z"/>
<path fill="#000000" opacity="1.000000" stroke="none" 
	d="
M641.485840,772.408569 
	C640.050354,768.380859 640.771362,764.848938 642.211060,761.398071 
	C648.336487,746.715454 669.445068,741.467834 681.288696,751.971008 
	C689.707581,759.437012 694.827393,768.674622 694.405029,780.432312 
	C694.054382,790.193481 687.016113,798.783325 676.102356,802.280518 
	C667.287048,805.105286 659.043518,802.165283 652.910950,794.009338 
	C646.266846,785.173096 646.325989,784.776917 655.642578,779.178833 
	C663.468018,774.476746 671.321777,769.821655 679.084290,765.192627 
	C676.818848,758.569397 670.820740,754.775513 663.918030,755.289917 
	C657.198059,755.790771 649.892578,761.518982 649.288208,767.543945 
	C648.767639,772.732788 646.620483,774.350037 641.485840,772.408569 
M669.826233,794.805603 
	C682.915649,794.417419 689.792847,783.287598 682.980408,772.070618 
	C675.057434,776.835388 667.133850,781.600525 658.976868,786.506042 
	C661.863281,790.916199 664.630615,793.830078 669.826233,794.805603 
z"/>
<path fill="#000000" opacity="1.000000" stroke="none" 
	d="
M318.810303,743.167053 
	C324.931519,748.030579 330.782715,752.663086 336.588196,757.259460 
	C342.149628,751.741638 343.435242,744.737610 340.227814,738.863953 
	C336.595459,732.212036 328.796265,728.413269 321.835480,730.343933 
	C318.671143,731.221619 317.650726,729.811707 316.723541,727.348450 
	C315.708435,724.651733 316.825592,723.140686 319.282196,722.452637 
	C321.511322,721.828369 323.811066,721.112732 326.091400,721.070374 
	C340.885010,720.795898 354.584900,738.689941 350.260986,752.749878 
	C347.425934,761.968567 341.832397,769.350952 333.700745,774.572205 
	C322.745331,781.606445 309.125549,778.533203 300.564484,767.320984 
	C293.918274,758.616638 295.936066,745.055969 305.029114,736.550293 
	C306.697083,734.989990 308.140930,734.883911 309.852142,736.209473 
	C312.747711,738.452332 315.644226,740.693970 318.810303,743.167053 
M327.922028,760.510620 
	C323.016785,756.572693 318.020233,752.741699 313.238037,748.659729 
	C309.982910,745.881165 308.181580,746.822754 306.586121,750.350342 
	C303.486877,757.202637 305.593994,763.520935 312.542389,767.635437 
	C319.499451,771.755066 326.253571,770.350647 331.276428,763.569702 
	C330.347168,762.708069 329.397217,761.827271 327.922028,760.510620 
z"/>
<path fill="#000000" opacity="1.000000" stroke="none" 
	d="
M416.478027,240.603348 
	C419.237122,240.675690 420.220459,241.932999 419.771179,244.190994 
	C419.383514,246.139160 419.029938,248.147598 418.257996,249.957382 
	C411.784302,265.134979 389.039520,269.597260 377.915802,257.478180 
	C369.752625,248.584595 365.082306,237.989975 367.847412,225.482910 
	C370.174255,214.958130 381.468353,206.755676 392.854126,206.936920 
	C402.358398,207.088196 411.884521,215.818985 413.971741,226.062225 
	C414.642426,229.353699 412.366119,230.108246 410.280090,231.038879 
	C401.310547,235.040451 392.305725,238.962830 383.316956,242.921371 
	C382.572144,243.249374 381.851379,243.632050 381.167542,243.965805 
	C382.250153,250.204102 387.706696,255.254669 393.651031,255.680725 
	C401.480469,256.241913 409.348083,251.489670 411.370819,244.646515 
	C412.139496,242.046005 412.512695,239.631180 416.478027,240.603348 
M383.679718,234.044159 
	C390.258514,231.131180 396.837341,228.218185 403.381866,225.320358 
	C399.256744,215.741684 392.416565,213.065598 384.236023,217.151108 
	C376.479645,221.024780 373.760468,229.163116 377.942810,236.106873 
	C379.849670,236.201630 381.339203,234.997406 383.679718,234.044159 
z"/>
<path fill="#000000" opacity="1.000000" stroke="none" 
	d="
M827.114502,408.077209 
	C835.374512,425.328461 829.317017,438.421326 811.315430,443.139618 
	C808.189026,443.959076 806.521790,443.482330 805.444397,440.007172 
	C802.203064,429.551697 798.555908,419.222076 795.089050,408.908966 
	C788.007996,410.155853 782.881714,415.184692 782.170288,421.242859 
	C781.256226,429.026978 785.294556,436.868561 791.838257,439.240112 
	C794.570129,440.230194 796.195984,441.115479 795.415771,444.470398 
	C794.724304,447.443970 793.430847,448.218353 790.483337,447.532104 
	C781.670471,445.480316 774.709839,436.483551 773.711304,425.507538 
	C772.671021,414.072693 776.596924,406.751801 786.741577,401.349213 
	C791.022095,399.069580 795.487671,397.354828 800.319702,396.499451 
	C811.680542,394.488220 820.658325,397.861664 827.114502,408.077209 
M807.006287,419.672272 
	C807.771667,422.046570 808.530151,424.423126 809.303711,426.794739 
	C811.486450,433.486572 814.116577,434.114227 819.189697,429.043304 
	C821.507202,426.726807 822.741333,423.915771 822.701294,420.525299 
	C822.573792,409.736023 813.996094,403.303253 802.961670,406.200684 
	C803.479919,410.637421 805.479980,414.688416 807.006287,419.672272 
z"/>
<path fill="#000000" opacity="1.000000" stroke="none" 
	d="
M839.111328,515.980225 
	C846.607239,527.333313 846.146912,541.003113 838.015381,548.903381 
	C831.554749,555.180237 823.551208,555.726318 815.180115,554.398926 
	C811.862122,553.872803 812.234497,551.460510 812.371948,549.042847 
	C812.891663,539.904907 813.421448,530.765808 813.766602,521.620300 
	C813.963257,516.410278 812.620972,515.416382 807.544373,516.643799 
	C801.572510,518.087646 797.389465,521.473999 796.005615,527.727173 
	C794.591431,534.117737 794.983337,540.153809 800.600769,544.463074 
	C803.391052,546.603455 802.923828,548.275513 801.195374,550.659424 
	C799.226257,553.375488 797.437561,552.600403 795.360168,550.922546 
	C786.645630,543.883972 785.917725,534.545105 788.127258,524.635437 
	C790.354736,514.645020 797.407776,508.055603 807.448486,506.965607 
	C818.951050,505.716949 830.200562,506.340820 839.111328,515.980225 
M825.172546,517.475586 
	C822.346252,516.998901 821.658508,518.929688 821.523804,521.026001 
	C821.067017,528.133484 820.762878,535.250854 820.391174,542.363892 
	C820.271973,544.645447 821.254456,545.650208 823.614990,545.667236 
	C828.954285,545.705750 834.148743,542.011414 835.647766,536.910889 
	C838.363159,527.671143 835.164368,521.367493 825.172546,517.475586 
z"/>
<path fill="#000000" opacity="1.000000" stroke="none" 
	d="
M257.395111,356.462891 
	C277.194855,367.746857 273.550201,389.153015 261.518311,399.435028 
	C256.256531,403.931610 250.204330,405.616669 243.436295,404.639282 
	C235.654587,403.515472 228.714294,400.270355 222.823624,395.160309 
	C215.330261,388.660034 211.827850,380.566406 214.867203,370.603455 
	C217.930328,360.562653 223.702179,352.966614 234.673782,351.002228 
	C242.795303,349.548157 250.110229,352.377686 257.395111,356.462891 
M235.878098,360.065094 
	C227.993347,361.038727 224.798050,366.638336 222.918335,373.392792 
	C221.204773,379.550262 224.235138,384.007782 228.643768,387.724670 
	C233.031021,391.423523 238.130997,393.785583 243.735291,395.066467 
	C251.316391,396.799194 256.999939,394.194000 260.721771,387.231659 
	C264.409760,380.332611 263.580139,373.700836 257.900177,368.695679 
	C251.903778,363.411682 245.018417,359.908386 235.878098,360.065094 
z"/>
<path fill="#000000" opacity="1.000000" stroke="none" 
	d="
M801.018188,588.673218 
	C806.377136,589.709229 811.012817,591.495239 815.400208,593.951965 
	C826.627136,600.238342 830.745728,612.189270 826.030945,624.825439 
	C821.459473,637.077637 810.484375,643.243896 797.918213,640.690369 
	C793.993225,639.892761 790.167725,638.828674 786.506714,637.195618 
	C773.230652,631.273132 767.806091,619.802124 771.862915,606.224304 
	C775.913879,592.666138 786.146240,586.399719 801.018188,588.673218 
M799.449524,598.018494 
	C797.976440,597.799561 796.508606,597.440063 795.029480,597.385315 
	C787.302368,597.099121 782.236938,600.816345 779.879822,608.401428 
	C777.488098,616.097900 779.727600,622.430481 786.468262,626.413879 
	C791.825500,629.579590 797.612061,631.614441 803.897888,631.742432 
	C811.181152,631.890808 815.908691,628.342407 818.359619,621.141907 
	C820.755371,614.103577 819.092896,608.254456 813.394958,603.923706 
	C809.487183,600.953674 804.970520,599.332031 799.449524,598.018494 
z"/>
<path fill="#000000" opacity="1.000000" stroke="none" 
	d="
M474.682343,239.552490 
	C467.378113,242.842422 466.856659,242.604034 465.185272,235.278763 
	C463.077728,226.041840 461.169952,216.756592 458.900116,207.560272 
	C456.863434,199.308701 453.768829,196.787857 447.225830,197.304352 
	C439.396179,197.922409 433.957855,203.053040 433.235504,210.397873 
	C432.584259,217.020035 434.711548,223.243469 435.929596,229.588348 
	C436.836700,234.313538 438.056396,238.978989 439.149048,243.668198 
	C439.868530,246.756149 439.191437,248.622696 435.597687,249.319305 
	C432.116180,249.994141 430.732330,248.776016 430.043091,245.577225 
	C426.857086,230.790695 423.621399,216.014313 420.276642,201.263031 
	C419.614136,198.341141 419.344849,196.140701 423.003540,195.116165 
	C426.695953,194.082153 428.280792,195.630753 428.903259,198.989624 
	C429.044769,199.753372 429.314209,200.493423 429.728455,201.970856 
	C432.954254,194.668045 438.112976,190.685760 445.244812,189.197311 
	C455.833710,186.987335 463.597351,190.937500 466.590607,201.285126 
	C470.186890,213.717407 472.823181,226.420761 474.682343,239.552490 
z"/>
<path fill="#000000" opacity="1.000000" stroke="none" 
	d="
M607.474976,813.483765 
	C611.696228,819.993896 615.379883,821.244324 621.952026,818.687439 
	C628.935242,815.970581 632.709778,809.704285 631.413818,802.437378 
	C629.826233,793.535461 625.967896,785.339844 623.077881,776.843384 
	C622.595947,775.426514 622.168823,773.977661 621.536560,772.627930 
	C620.081360,769.521729 620.963623,767.826843 624.209656,766.572144 
	C627.578247,765.270020 629.062073,766.385437 630.163452,769.465271 
	C635.316284,783.874451 640.511597,798.268982 645.829041,812.617920 
	C646.985718,815.739136 646.569214,817.450623 643.207642,818.690918 
	C639.750366,819.966614 638.234863,818.814270 637.459351,815.600708 
	C637.269592,814.814453 636.811584,814.092957 636.063782,812.414490 
	C633.598450,820.893188 628.349670,825.606689 620.683289,827.800598 
	C611.484863,830.432922 605.206543,828.011963 600.576721,819.621399 
	C599.056885,816.867004 597.807373,813.932861 596.721619,810.975403 
	C593.567871,802.384583 590.665039,793.700562 587.437988,785.138062 
	C586.286987,782.083923 586.427917,780.283081 589.844788,778.979980 
	C593.458984,777.601624 594.897339,778.908020 596.053040,782.200806 
	C599.688110,792.557861 603.550293,802.835205 607.474976,813.483765 
z"/>
<path fill="#000000" opacity="1.000000" stroke="none" 
	d="
M219.068741,511.049377 
	C208.719406,507.237488 198.713470,503.599670 188.742615,499.868103 
	C182.093353,497.379639 181.599854,496.267242 183.442642,489.080261 
	C185.014511,488.337463 186.373489,489.211060 187.736938,489.720215 
	C202.852982,495.365204 217.895187,501.216827 233.101807,506.604858 
	C237.557114,508.183441 238.186234,510.901489 238.274261,514.935852 
	C238.365585,519.121399 236.771957,521.108826 232.854477,522.549072 
	C218.182037,527.943420 203.646454,533.709961 189.057755,539.332275 
	C187.380539,539.978638 185.760895,540.896729 183.921066,540.706726 
	C181.345779,534.298950 182.093338,532.153442 187.931946,529.885925 
	C198.941559,525.610229 210.003799,521.470154 221.029053,517.234314 
	C222.868683,516.527527 224.631927,515.621887 226.975967,514.561218 
	C224.408173,512.603455 221.821121,512.091553 219.068741,511.049377 
z"/>
<path fill="#000000" opacity="1.000000" stroke="none" 
	d="
M830.311157,448.269989 
	C832.607788,447.274902 834.284058,445.723145 836.547058,445.621948 
	C839.976929,450.783905 839.343262,453.974060 834.139587,456.801880 
	C823.601135,462.528717 813.012695,468.163544 802.445435,473.837250 
	C800.878601,474.678558 799.159485,475.313904 797.710510,477.196716 
	C803.283264,479.448242 808.902222,480.064758 814.311829,481.395081 
	C822.234863,483.343597 830.228271,485.003967 838.179260,486.841125 
	C843.945984,488.173584 845.086914,490.331787 843.461060,496.771790 
	C840.598145,497.374054 837.990417,496.057007 835.295532,495.433990 
	C821.026489,492.135132 806.776245,488.753754 792.494568,485.511078 
	C789.349060,484.796844 786.890808,483.994080 786.610535,480.024811 
	C786.319885,475.907043 785.065063,472.361938 790.366028,469.720184 
	C803.777649,463.036499 816.808533,455.588837 830.311157,448.269989 
z"/>
<path fill="#000000" opacity="1.000000" stroke="none" 
	d="
M553.234985,795.062012 
	C550.406433,797.399109 548.616272,796.779541 546.891541,794.068726 
	C545.143555,791.321411 546.428528,789.770020 548.508179,788.264343 
	C559.973267,779.964111 572.630554,784.768921 575.461243,798.619263 
	C577.259644,807.418091 578.840027,816.263855 580.368835,825.114319 
	C580.953186,828.497375 582.128357,830.263428 585.975464,829.075806 
	C588.112915,828.415894 590.719849,827.721558 591.284912,831.419739 
	C591.735474,834.368469 591.169128,836.285645 587.730408,836.518799 
	C582.971069,836.841492 582.629028,839.940430 583.667358,843.592896 
	C584.469543,846.414734 584.698303,848.677673 581.306030,850.111572 
	C577.628540,851.666077 575.588562,850.949951 575.093567,846.831970 
	C574.954651,845.676453 574.671936,844.538879 574.502075,843.386169 
	C574.062378,840.401917 572.820251,838.940063 569.440186,839.887268 
	C566.413452,840.735474 563.193542,840.872620 560.128296,841.611450 
	C557.610168,842.218445 556.344543,841.512329 555.914429,838.959045 
	C555.498535,836.490295 555.946289,834.622620 558.724121,834.080627 
	C561.663879,833.507080 564.597168,832.845093 567.565308,832.486450 
	C571.284180,832.036987 572.246948,829.994141 571.588562,826.608765 
	C569.907898,817.966309 568.400024,809.288696 566.610229,800.669373 
	C565.092712,793.361267 561.162537,791.709961 553.234985,795.062012 
z"/>
<path fill="#000000" opacity="1.000000" stroke="none" 
	d="
M494.736023,182.125183 
	C498.665100,184.734268 502.612305,183.399429 506.504425,183.141907 
	C509.118958,182.968933 511.966003,182.132950 512.328369,186.380005 
	C512.679626,190.497421 510.244537,191.085342 507.105713,191.141373 
	C505.609161,191.168076 504.113495,191.241318 502.617004,191.274689 
	C495.091766,191.442612 494.817749,191.742966 495.403534,199.335327 
	C495.990845,206.947601 496.564941,214.560974 497.183075,222.170761 
	C497.856842,230.465561 501.712250,233.084549 509.520935,230.055710 
	C512.614929,228.855591 514.355225,228.877853 515.760986,232.157547 
	C517.384521,235.945343 514.732117,237.096359 512.272644,237.951370 
	C501.176575,241.808685 488.108978,240.317520 487.670776,222.147629 
	C487.466644,213.684097 486.686676,205.235382 486.233978,196.776413 
	C486.060974,193.544220 484.745300,191.862717 481.262238,192.257828 
	C478.700653,192.548431 476.703888,192.088242 476.653900,188.693192 
	C476.607025,185.513321 478.182465,184.484314 480.941559,184.720428 
	C485.353821,185.098068 485.915100,182.861176 485.246429,179.179138 
	C484.853302,177.014313 484.083313,174.307541 486.722107,172.900558 
	C488.589996,171.904617 490.794556,170.901367 492.919769,171.857620 
	C495.023132,172.804031 494.149780,175.047638 494.317139,176.774658 
	C494.477051,178.425018 494.485321,180.090073 494.736023,182.125183 
z"/>
<path fill="#000000" opacity="1.000000" stroke="none" 
	d="
M252.785583,425.651245 
	C248.916077,430.427155 244.259277,431.152740 239.058578,429.446472 
	C219.629135,423.071960 200.226730,416.614807 180.783966,410.281433 
	C177.680542,409.270477 177.031158,407.614594 178.067703,404.654205 
	C179.098068,401.711487 180.249908,400.248505 183.843414,401.477905 
	C201.780380,407.614258 219.800079,413.508911 237.794769,419.476227 
	C244.438644,421.679413 244.707489,421.630615 247.945175,415.366119 
	C249.263092,412.816193 251.261200,413.678406 253.127960,413.923889 
	C255.059204,414.177856 256.084686,415.442963 255.836594,417.423340 
	C255.481445,420.258301 254.608215,422.937225 252.785583,425.651245 
z"/>
<path fill="#000000" opacity="1.000000" stroke="none" 
	d="
M795.889099,572.335327 
	C792.013367,571.979797 789.472473,572.938965 789.259644,576.924133 
	C789.076660,580.350464 786.766479,580.353088 784.288208,580.125671 
	C781.499084,579.869751 780.758789,578.078064 780.862000,575.589905 
	C781.230530,566.704224 787.987915,561.343933 796.913330,563.048096 
	C806.382080,564.855957 815.814392,566.853760 825.275269,568.704041 
	C835.399048,570.683960 845.529785,572.631042 855.674561,574.499573 
	C858.644836,575.046631 860.556152,575.680054 859.687500,579.614746 
	C858.915222,583.112305 857.955078,584.321594 854.125366,583.548157 
	C834.884277,579.661865 815.584961,576.063416 795.889099,572.335327 
z"/>
<path fill="#000000" opacity="1.000000" stroke="none" 
	d="
M551.641968,241.222733 
	C547.832153,241.519638 544.828674,240.879913 543.888489,237.067978 
	C543.217590,234.347443 543.786316,231.799652 546.292725,230.069885 
	C548.941833,228.241608 551.621155,228.508224 554.097229,230.324707 
	C558.170471,233.312881 557.167908,238.452927 551.641968,241.222733 
z"/>
<path fill="#000000" opacity="1.000000" stroke="none" 
	d="
M464.634460,786.609497 
	C466.089752,785.610229 467.391663,785.420410 468.744843,785.472168 
	C471.628174,785.582397 474.042114,786.566528 474.958130,789.533936 
	C475.829224,792.355652 474.986145,794.869080 472.641754,796.640869 
	C470.058411,798.593018 467.299652,798.325134 464.776459,796.475037 
	C462.320557,794.674133 461.823883,792.128784 462.756989,789.344299 
	C463.061401,788.435852 463.801453,787.673401 464.634460,786.609497 
z"/>
</svg>